<svg xmlns="http://www.w3.org/2000/svg" width="23" height="14" viewBox="0 0 23 14">
  <path id="Path_17940" data-name="Path 17940" d="M23,14.5H1a.5.5,0,0,1-.26-.927L12,6.719V5.5a.5.5,0,0,1,.5-.5,1.5,1.5,0,0,0,1.192-.474A1.705,1.705,0,0,0,14.066,3.4,1.75,1.75,0,0,0,12.5,1.5c-1.977,0-2,1.439-2,1.5a.5.5,0,0,1-1,0c0-1,.8-2.5,3-2.5a2.732,2.732,0,0,1,2.566,2.9,2.7,2.7,0,0,1-.618,1.778A2.35,2.35,0,0,1,13,5.962V7a.5.5,0,0,1-.24.427L2.783,13.5H21.307L14.229,8.92a.5.5,0,1,1,.542-.84l8.5,5.5A.5.5,0,0,1,23,14.5Z" transform="translate(-0.5 -0.5)" fill="#985a33"/>
</svg>
