<svg xmlns="http://www.w3.org/2000/svg" width="20.273" height="14.809" viewBox="0 0 20.273 14.809">
  <path id="パス_248" data-name="パス 248" d="M610.372,335.764l-6.728-5.445a.508.508,0,1,0-.639.79l6.4,5.181H591.982l9.032-7.309c.007-.006.01-.014.017-.02a.5.5,0,0,0,.068-.083.521.521,0,0,0,.051-.075.494.494,0,0,0,.027-.087.528.528,0,0,0,.021-.1c0-.009.005-.017.005-.025v-1.064a2.538,2.538,0,1,0-3.046-2.487.508.508,0,1,0,1.017,0,1.521,1.521,0,1,1,1.521,1.521.508.508,0,0,0-.508.508v1.279l-9.169,7.421c-.527.426-.489.819-.419,1.017s.287.526.965.526h18.263c.678,0,.9-.33.965-.526S610.9,336.19,610.372,335.764Z" transform="translate(-590.558 -322.497)" fill="#004791"/>
</svg>
